<?xml version="1.0" encoding="utf-8"?>
<!-- Generator: Adobe Illustrator 23.0.1, SVG Export Plug-In . SVG Version: 6.00 Build 0)  -->
<svg version="1.1" id="Layer_1" xmlns="http://www.w3.org/2000/svg" xmlns:xlink="http://www.w3.org/1999/xlink" x="0px" y="0px"
	 viewBox="0 0 1920 153" style="enable-background:new 0 0 1920 153;" xml:space="preserve">
<style type="text/css">
	.st0{fill:#DDDBDB;}
	.st1{fill:#BF9332;}
	.st2{fill:#FFFFFF;}
</style>
<path class="st0" d="M1951,18.5v112H-35v-46c0,0,494.4-116,957.8-60c2.4,0.3,4.8,0.6,7.2,0.8c83.2,9.8,169.5,15.9,255.1,19.2
	c381.7,14.9,749.7-24.3,765.3-26C1950.8,18.5,1951,18.5,1951,18.5z"/>
<path class="st1" d="M1908,55.7v97.8h-0.5v1.5H289v-48.9c0,0,200.9-54.2,461.2-73.4c68-5,140-7.6,213.6-6.3
	c69.7,1.3,140.7,6.1,210.9,15.9c8.3,1.1,16.6,2.3,25,3.3c117,14.8,239.9,20.7,356.6,21.5h0.1c130.5,0.9,253.2-4.7,351.1-11.3
	C1907.7,55.7,1907.8,55.7,1908,55.7z"/>
<path class="st2" d="M1951,42.9V184H-35v-57.9c0,0,348.2-102.9,734.1-94.3c73.9,1.6,149.3,7.4,223.8,18.7
	c216.5,33,455.1,33.5,647.9,24.7h0.1c212.6-9.7,369.5-30.8,379.6-32.1C1950.8,42.9,1951,42.9,1951,42.9z"/>
<path class="st2" d="M1920.5,18.5v134h-0.5V18.6C1920.3,18.5,1920.5,18.5,1920.5,18.5z"/>
</svg>
